<svg width="131" height="42" viewBox="0 0 131 42" fill="none" xmlns="http://www.w3.org/2000/svg">
<g id="logo-purple" clip-path="url(#clip0_3_4104)">
<path id="Vector" d="M55.4018 33.1213V35.5812H49.0726C48.1828 35.6558 47.3014 35.3742 46.6215 34.8109C46.0255 34.1318 45.7317 33.2456 45.8156 32.3511V21.3355H55.0912V23.8119H48.7284V32.1523C48.6864 32.4339 48.7872 32.7238 48.9886 32.9226C49.1985 33.0634 49.4419 33.1296 49.6937 33.1213H55.3934H55.4018ZM57.408 29.3363H53.9916V26.8184H57.4248V20.2588H60.2536V38.2896H57.4248L57.408 29.3363ZM62.1256 20.2588H64.9796V38.2896H62.1507L62.1339 20.2588H62.1256Z" fill="#1F73FF"/>
<path id="Vector_2" d="M67.5062 27.6715C67.5062 26.8267 67.6825 25.9901 68.0267 25.2116C68.3624 24.4662 68.8409 23.7953 69.4285 23.2321C70.0413 22.6855 70.7632 22.2548 71.5355 21.9649C73.1639 21.3271 74.9855 21.3271 76.6139 21.9649C77.361 22.2548 78.041 22.6855 78.6202 23.2321C79.2246 23.7953 79.703 24.4662 80.0472 25.2116C80.3997 25.9818 80.576 26.8184 80.5676 27.6715C80.5676 28.5328 80.3913 29.3776 80.0472 30.1645C79.703 30.9099 79.2246 31.5807 78.6202 32.1439C78.041 32.6906 77.361 33.1213 76.6139 33.4112C74.9855 34.0489 73.1639 34.0489 71.5355 33.4112C69.9657 32.8397 68.6982 31.6718 68.0183 30.1645C67.6657 29.3776 67.4895 28.5245 67.4978 27.6715H67.5062ZM70.3603 27.6715C70.3603 28.1767 70.4526 28.6736 70.6373 29.1374C70.8303 29.5598 71.099 29.9491 71.4431 30.2638C71.7789 30.5869 72.1734 30.8353 72.6099 31.001C73.5669 31.3488 74.6077 31.3488 75.5647 31.001C76.4796 30.6945 77.2099 30.0154 77.5709 29.1374C77.9738 28.2015 77.9738 27.1414 77.5709 26.2055C77.403 25.7748 77.1428 25.3855 76.807 25.0542C76.4629 24.7312 76.0599 24.4827 75.6234 24.3005C74.6665 23.9527 73.6256 23.9527 72.6687 24.3005C72.2406 24.4745 71.8376 24.7312 71.5019 25.0542C71.1577 25.3772 70.8807 25.7665 70.696 26.2055C70.4862 26.6776 70.3687 27.1911 70.3519 27.7129V27.6715H70.3603ZM83.514 20.2256H86.4016V38.2563H83.514V20.2256Z" fill="#1F73FF"/>
<path id="Vector_3" d="M102.283 33.6017V36.0782H93.7298C92.84 36.1693 91.9586 35.9125 91.2619 35.3659C90.6827 34.6867 90.3973 33.8005 90.4812 32.906V21.0953H101.486V23.5718H93.4528V27.216H101.486V29.6924H93.4528V32.641C93.4192 32.9143 93.5199 33.1959 93.713 33.3947C93.9228 33.5355 94.1831 33.61 94.4349 33.5935H102.283V33.6017ZM102.745 27.2243H105.935V20.2671H108.823V38.2979H105.935V29.7007H102.72L102.737 27.2243H102.745Z" fill="#1F73FF"/>
<path id="Vector_4" d="M111.727 26.1476C111.735 24.6402 112.39 23.2073 113.515 22.1886C114.094 21.6585 114.774 21.2527 115.521 20.9959C116.302 20.6646 117.141 20.4907 117.989 20.4824C118.803 20.4741 119.617 20.6232 120.381 20.9214C121.128 21.1781 121.808 21.584 122.387 22.114C122.933 22.6193 123.378 23.2239 123.689 23.8948C123.957 24.6153 124.066 25.3856 124.008 26.1559C124.008 26.9178 123.848 27.6798 123.529 28.3755C123.21 29.0464 122.774 29.651 122.228 30.1562C121.64 30.6615 120.952 31.059 120.222 31.3241C119.458 31.6057 118.644 31.7465 117.829 31.7382C117.024 31.763 116.226 31.6471 115.462 31.3986C114.724 31.1336 114.044 30.736 113.456 30.2308C112.902 29.7256 112.457 29.1209 112.155 28.4501C111.844 27.7212 111.693 26.9427 111.735 26.1559L111.727 26.1476ZM114.614 26.1476C114.614 26.5534 114.69 26.951 114.858 27.3154C115.177 28.0608 115.798 28.6323 116.562 28.8973C116.982 29.0547 117.435 29.1292 117.888 29.1127C118.316 29.1127 118.736 29.0464 119.13 28.8973C119.508 28.7565 119.861 28.5495 120.155 28.2844C120.457 28.0111 120.7 27.6798 120.876 27.3154C121.044 26.951 121.137 26.5534 121.137 26.1476C121.137 25.7334 121.044 25.3193 120.876 24.9383C120.7 24.5739 120.457 24.2426 120.155 23.9693C119.861 23.6794 119.508 23.4558 119.13 23.2984C118.736 23.1411 118.316 23.0582 117.888 23.0582C117.435 23.0582 116.982 23.1328 116.562 23.2984C116.184 23.4558 115.832 23.6877 115.538 23.9693C114.933 24.5408 114.598 25.3276 114.614 26.1476ZM119.995 37.0223C119.962 37.4365 119.962 37.8589 119.995 38.273C120.045 38.5463 120.163 38.8113 120.339 39.0267C120.541 39.2172 120.793 39.3497 121.061 39.3994C121.456 39.4657 121.859 39.4988 122.27 39.4988H131.008V41.9918H121.892C121.145 42.0001 120.398 41.9421 119.659 41.8096C119.114 41.7185 118.61 41.4783 118.19 41.1138C117.779 40.7329 117.485 40.2442 117.351 39.7058C117.158 38.9273 117.074 38.1322 117.091 37.3288V34.1815H120.003V37.0141L119.995 37.0223ZM127.902 20.2588H130.79V34.8772H127.902V20.2588Z" fill="#764BEA"/>
<path id="Vector_5" d="M38.7561 19.1323C38.7645 8.57228 30.0932 0.0082884 19.3906 6.00828e-06C8.68801 -0.00827638 0.00840046 8.54743 6.25267e-06 19.0992C-0.00838795 29.5184 8.43618 38.0245 18.9961 38.2315H38.7561V19.6044V19.1323ZM29.279 26.7438C29.044 27.365 28.683 27.9282 28.2129 28.4086C27.7932 28.8559 27.298 29.2286 26.744 29.5019C26.2571 29.7255 25.7366 29.8497 25.1994 29.858C24.5531 29.8746 23.9151 29.7421 23.3359 29.4605C22.8155 29.1954 22.3706 28.8227 22.0096 28.3672C21.5228 27.7295 21.1786 26.9923 21.0023 26.2055L20.8848 25.7914L19.76 22.1885L18.6351 25.8162C18.5848 25.9322 18.5512 26.0481 18.5176 26.1724C18.3413 26.9675 17.9972 27.7129 17.5103 28.3755C17.1746 28.8476 16.7129 29.2203 16.184 29.4688C15.6048 29.7504 14.9669 29.8912 14.3205 29.8663C13.7917 29.858 13.2712 29.7338 12.7928 29.5102C11.626 28.9387 10.7194 27.9614 10.2661 26.7521L5.54858 14.5273H5.8088C6.16975 14.4445 6.53909 14.4114 6.91683 14.4114C9.06575 14.4528 10.9461 15.8525 11.5756 17.8817L14.0435 24.3585C14.1023 24.4828 14.1694 24.5987 14.245 24.7147C14.3205 24.7312 14.4045 24.7312 14.4884 24.7147C14.5891 24.5821 14.6563 24.4248 14.6899 24.2591L17.1578 15.8194C17.4851 14.7841 18.4673 14.0884 19.5669 14.1132C20.6581 14.0884 21.6319 14.7841 21.9593 15.8194L24.4523 24.2591C24.4775 24.4248 24.5363 24.5821 24.637 24.7147C24.7126 24.7312 24.7965 24.7312 24.8804 24.7147L25.0819 24.3585L27.5498 17.8817C28.171 15.8194 30.0848 14.3948 32.2673 14.3782C32.6451 14.3782 33.0228 14.4196 33.3922 14.4942H33.6356L29.2958 26.7604L29.279 26.7438Z" fill="#764BEA"/>
</g>
<defs>
<clipPath id="clip0_3_4104">
<rect width="131" height="42" fill="white"/>
</clipPath>
</defs>
</svg>
